<mxfile host="65bd71144e">
    <diagram id="h0ng701IlrIuQYJL-kkd" name="Page-1">
        <mxGraphModel dx="779" dy="454" grid="1" gridSize="10" guides="1" tooltips="1" connect="1" arrows="1" fold="1" page="1" pageScale="1" pageWidth="850" pageHeight="1100" math="0" shadow="0">
            <root>
                <mxCell id="0"/>
                <mxCell id="1" parent="0"/>
                <mxCell id="3" value="Cliente" style="swimlane;fontStyle=0;childLayout=stackLayout;horizontal=1;startSize=26;fillColor=none;horizontalStack=0;resizeParent=1;resizeParentMax=0;resizeLast=0;collapsible=1;marginBottom=0;" parent="1" vertex="1">
                    <mxGeometry x="100" y="60" width="200" height="338" as="geometry"/>
                </mxCell>
                <mxCell id="4" value="_id: Objectid" style="text;strokeColor=none;fillColor=none;align=left;verticalAlign=top;spacingLeft=4;spacingRight=4;overflow=hidden;rotatable=0;points=[[0,0.5],[1,0.5]];portConstraint=eastwest;" parent="3" vertex="1">
                    <mxGeometry y="26" width="200" height="26" as="geometry"/>
                </mxCell>
                <mxCell id="5" value="nome: String" style="text;strokeColor=none;fillColor=none;align=left;verticalAlign=top;spacingLeft=4;spacingRight=4;overflow=hidden;rotatable=0;points=[[0,0.5],[1,0.5]];portConstraint=eastwest;" parent="3" vertex="1">
                    <mxGeometry y="52" width="200" height="26" as="geometry"/>
                </mxCell>
                <mxCell id="6" value="cpf: String (unique)" style="text;strokeColor=none;fillColor=none;align=left;verticalAlign=top;spacingLeft=4;spacingRight=4;overflow=hidden;rotatable=0;points=[[0,0.5],[1,0.5]];portConstraint=eastwest;" parent="3" vertex="1">
                    <mxGeometry y="78" width="200" height="26" as="geometry"/>
                </mxCell>
                <mxCell id="29" value="data_nascimento: DateTime?" style="text;strokeColor=none;fillColor=none;align=left;verticalAlign=top;spacingLeft=4;spacingRight=4;overflow=hidden;rotatable=0;points=[[0,0.5],[1,0.5]];portConstraint=eastwest;" parent="3" vertex="1">
                    <mxGeometry y="104" width="200" height="26" as="geometry"/>
                </mxCell>
                <mxCell id="21" value="logradouro: String" style="text;strokeColor=none;fillColor=none;align=left;verticalAlign=top;spacingLeft=4;spacingRight=4;overflow=hidden;rotatable=0;points=[[0,0.5],[1,0.5]];portConstraint=eastwest;" parent="3" vertex="1">
                    <mxGeometry y="130" width="200" height="26" as="geometry"/>
                </mxCell>
                <mxCell id="22" value="num_casa: String" style="text;strokeColor=none;fillColor=none;align=left;verticalAlign=top;spacingLeft=4;spacingRight=4;overflow=hidden;rotatable=0;points=[[0,0.5],[1,0.5]];portConstraint=eastwest;" parent="3" vertex="1">
                    <mxGeometry y="156" width="200" height="26" as="geometry"/>
                </mxCell>
                <mxCell id="23" value="bairro: String" style="text;strokeColor=none;fillColor=none;align=left;verticalAlign=top;spacingLeft=4;spacingRight=4;overflow=hidden;rotatable=0;points=[[0,0.5],[1,0.5]];portConstraint=eastwest;" parent="3" vertex="1">
                    <mxGeometry y="182" width="200" height="26" as="geometry"/>
                </mxCell>
                <mxCell id="24" value="complemento: String?" style="text;strokeColor=none;fillColor=none;align=left;verticalAlign=top;spacingLeft=4;spacingRight=4;overflow=hidden;rotatable=0;points=[[0,0.5],[1,0.5]];portConstraint=eastwest;" parent="3" vertex="1">
                    <mxGeometry y="208" width="200" height="26" as="geometry"/>
                </mxCell>
                <mxCell id="25" value="municipio: String" style="text;strokeColor=none;fillColor=none;align=left;verticalAlign=top;spacingLeft=4;spacingRight=4;overflow=hidden;rotatable=0;points=[[0,0.5],[1,0.5]];portConstraint=eastwest;" parent="3" vertex="1">
                    <mxGeometry y="234" width="200" height="26" as="geometry"/>
                </mxCell>
                <mxCell id="26" value="uf: String" style="text;strokeColor=none;fillColor=none;align=left;verticalAlign=top;spacingLeft=4;spacingRight=4;overflow=hidden;rotatable=0;points=[[0,0.5],[1,0.5]];portConstraint=eastwest;" parent="3" vertex="1">
                    <mxGeometry y="260" width="200" height="26" as="geometry"/>
                </mxCell>
                <mxCell id="27" value="telefone: String" style="text;strokeColor=none;fillColor=none;align=left;verticalAlign=top;spacingLeft=4;spacingRight=4;overflow=hidden;rotatable=0;points=[[0,0.5],[1,0.5]];portConstraint=eastwest;" parent="3" vertex="1">
                    <mxGeometry y="286" width="200" height="26" as="geometry"/>
                </mxCell>
                <mxCell id="28" value="email: String" style="text;strokeColor=none;fillColor=none;align=left;verticalAlign=top;spacingLeft=4;spacingRight=4;overflow=hidden;rotatable=0;points=[[0,0.5],[1,0.5]];portConstraint=eastwest;" parent="3" vertex="1">
                    <mxGeometry y="312" width="200" height="26" as="geometry"/>
                </mxCell>
                <mxCell id="7" value="Venda" style="swimlane;fontStyle=0;childLayout=stackLayout;horizontal=1;startSize=26;fillColor=none;horizontalStack=0;resizeParent=1;resizeParentMax=0;resizeLast=0;collapsible=1;marginBottom=0;" parent="1" vertex="1">
                    <mxGeometry x="415" y="60" width="140" height="130" as="geometry"/>
                </mxCell>
                <mxCell id="8" value="_id: Objectid" style="text;strokeColor=none;fillColor=none;align=left;verticalAlign=top;spacingLeft=4;spacingRight=4;overflow=hidden;rotatable=0;points=[[0,0.5],[1,0.5]];portConstraint=eastwest;" parent="7" vertex="1">
                    <mxGeometry y="26" width="140" height="26" as="geometry"/>
                </mxCell>
                <mxCell id="9" value="num_venda: Int" style="text;strokeColor=none;fillColor=none;align=left;verticalAlign=top;spacingLeft=4;spacingRight=4;overflow=hidden;rotatable=0;points=[[0,0.5],[1,0.5]];portConstraint=eastwest;" parent="7" vertex="1">
                    <mxGeometry y="52" width="140" height="26" as="geometry"/>
                </mxCell>
                <mxCell id="10" value="data_venda: DateTime" style="text;strokeColor=none;fillColor=none;align=left;verticalAlign=top;spacingLeft=4;spacingRight=4;overflow=hidden;rotatable=0;points=[[0,0.5],[1,0.5]];portConstraint=eastwest;" parent="7" vertex="1">
                    <mxGeometry y="78" width="140" height="26" as="geometry"/>
                </mxCell>
                <mxCell id="53" value="cliente: Cliente" style="text;strokeColor=none;fillColor=none;align=left;verticalAlign=top;spacingLeft=4;spacingRight=4;overflow=hidden;rotatable=0;points=[[0,0.5],[1,0.5]];portConstraint=eastwest;" parent="7" vertex="1">
                    <mxGeometry y="104" width="140" height="26" as="geometry"/>
                </mxCell>
                <mxCell id="11" value="Produto" style="swimlane;fontStyle=0;childLayout=stackLayout;horizontal=1;startSize=26;fillColor=none;horizontalStack=0;resizeParent=1;resizeParentMax=0;resizeLast=0;collapsible=1;marginBottom=0;" parent="1" vertex="1">
                    <mxGeometry x="980" y="60" width="180" height="156" as="geometry"/>
                </mxCell>
                <mxCell id="12" value="_id: Objectid    &#10;&#10;&#10;" style="text;strokeColor=none;fillColor=none;align=left;verticalAlign=top;spacingLeft=4;spacingRight=4;overflow=hidden;rotatable=0;points=[[0,0.5],[1,0.5]];portConstraint=eastwest;" parent="11" vertex="1">
                    <mxGeometry y="26" width="180" height="26" as="geometry"/>
                </mxCell>
                <mxCell id="13" value="descricao: String    " style="text;strokeColor=none;fillColor=none;align=left;verticalAlign=top;spacingLeft=4;spacingRight=4;overflow=hidden;rotatable=0;points=[[0,0.5],[1,0.5]];portConstraint=eastwest;" parent="11" vertex="1">
                    <mxGeometry y="52" width="180" height="26" as="geometry"/>
                </mxCell>
                <mxCell id="14" value="unidade_medida: String" style="text;strokeColor=none;fillColor=none;align=left;verticalAlign=top;spacingLeft=4;spacingRight=4;overflow=hidden;rotatable=0;points=[[0,0.5],[1,0.5]];portConstraint=eastwest;" parent="11" vertex="1">
                    <mxGeometry y="78" width="180" height="26" as="geometry"/>
                </mxCell>
                <mxCell id="30" value="quantidade: Double" style="text;strokeColor=none;fillColor=none;align=left;verticalAlign=top;spacingLeft=4;spacingRight=4;overflow=hidden;rotatable=0;points=[[0,0.5],[1,0.5]];portConstraint=eastwest;" parent="11" vertex="1">
                    <mxGeometry y="104" width="180" height="26" as="geometry"/>
                </mxCell>
                <mxCell id="31" value="valor_unitario: Double" style="text;strokeColor=none;fillColor=none;align=left;verticalAlign=top;spacingLeft=4;spacingRight=4;overflow=hidden;rotatable=0;points=[[0,0.5],[1,0.5]];portConstraint=eastwest;" parent="11" vertex="1">
                    <mxGeometry y="130" width="180" height="26" as="geometry"/>
                </mxCell>
                <mxCell id="15" value="Fornecedor" style="swimlane;fontStyle=0;childLayout=stackLayout;horizontal=1;startSize=26;fillColor=none;horizontalStack=0;resizeParent=1;resizeParentMax=0;resizeLast=0;collapsible=1;marginBottom=0;" parent="1" vertex="1">
                    <mxGeometry x="1320" y="60" width="140" height="338" as="geometry"/>
                </mxCell>
                <mxCell id="16" value="_id : Objectid" style="text;strokeColor=none;fillColor=none;align=left;verticalAlign=top;spacingLeft=4;spacingRight=4;overflow=hidden;rotatable=0;points=[[0,0.5],[1,0.5]];portConstraint=eastwest;" parent="15" vertex="1">
                    <mxGeometry y="26" width="140" height="26" as="geometry"/>
                </mxCell>
                <mxCell id="17" value="razao_social: String" style="text;strokeColor=none;fillColor=none;align=left;verticalAlign=top;spacingLeft=4;spacingRight=4;overflow=hidden;rotatable=0;points=[[0,0.5],[1,0.5]];portConstraint=eastwest;" parent="15" vertex="1">
                    <mxGeometry y="52" width="140" height="26" as="geometry"/>
                </mxCell>
                <mxCell id="18" value="nome_fantasia: String" style="text;strokeColor=none;fillColor=none;align=left;verticalAlign=top;spacingLeft=4;spacingRight=4;overflow=hidden;rotatable=0;points=[[0,0.5],[1,0.5]];portConstraint=eastwest;" parent="15" vertex="1">
                    <mxGeometry y="78" width="140" height="26" as="geometry"/>
                </mxCell>
                <mxCell id="33" value="cnpj: String (unique)" style="text;strokeColor=none;fillColor=none;align=left;verticalAlign=top;spacingLeft=4;spacingRight=4;overflow=hidden;rotatable=0;points=[[0,0.5],[1,0.5]];portConstraint=eastwest;" parent="15" vertex="1">
                    <mxGeometry y="104" width="140" height="26" as="geometry"/>
                </mxCell>
                <mxCell id="34" value="logradouro: String" style="text;strokeColor=none;fillColor=none;align=left;verticalAlign=top;spacingLeft=4;spacingRight=4;overflow=hidden;rotatable=0;points=[[0,0.5],[1,0.5]];portConstraint=eastwest;" parent="15" vertex="1">
                    <mxGeometry y="130" width="140" height="26" as="geometry"/>
                </mxCell>
                <mxCell id="35" value="num_casa: String" style="text;strokeColor=none;fillColor=none;align=left;verticalAlign=top;spacingLeft=4;spacingRight=4;overflow=hidden;rotatable=0;points=[[0,0.5],[1,0.5]];portConstraint=eastwest;" parent="15" vertex="1">
                    <mxGeometry y="156" width="140" height="26" as="geometry"/>
                </mxCell>
                <mxCell id="36" value="bairro: String" style="text;strokeColor=none;fillColor=none;align=left;verticalAlign=top;spacingLeft=4;spacingRight=4;overflow=hidden;rotatable=0;points=[[0,0.5],[1,0.5]];portConstraint=eastwest;" parent="15" vertex="1">
                    <mxGeometry y="182" width="140" height="26" as="geometry"/>
                </mxCell>
                <mxCell id="37" value="complemento: String?" style="text;strokeColor=none;fillColor=none;align=left;verticalAlign=top;spacingLeft=4;spacingRight=4;overflow=hidden;rotatable=0;points=[[0,0.5],[1,0.5]];portConstraint=eastwest;" parent="15" vertex="1">
                    <mxGeometry y="208" width="140" height="26" as="geometry"/>
                </mxCell>
                <mxCell id="38" value="municipio: String" style="text;strokeColor=none;fillColor=none;align=left;verticalAlign=top;spacingLeft=4;spacingRight=4;overflow=hidden;rotatable=0;points=[[0,0.5],[1,0.5]];portConstraint=eastwest;" parent="15" vertex="1">
                    <mxGeometry y="234" width="140" height="26" as="geometry"/>
                </mxCell>
                <mxCell id="39" value="uf: String" style="text;strokeColor=none;fillColor=none;align=left;verticalAlign=top;spacingLeft=4;spacingRight=4;overflow=hidden;rotatable=0;points=[[0,0.5],[1,0.5]];portConstraint=eastwest;" parent="15" vertex="1">
                    <mxGeometry y="260" width="140" height="26" as="geometry"/>
                </mxCell>
                <mxCell id="40" value="telefone: String" style="text;strokeColor=none;fillColor=none;align=left;verticalAlign=top;spacingLeft=4;spacingRight=4;overflow=hidden;rotatable=0;points=[[0,0.5],[1,0.5]];portConstraint=eastwest;" parent="15" vertex="1">
                    <mxGeometry y="286" width="140" height="26" as="geometry"/>
                </mxCell>
                <mxCell id="41" value="email: String" style="text;strokeColor=none;fillColor=none;align=left;verticalAlign=top;spacingLeft=4;spacingRight=4;overflow=hidden;rotatable=0;points=[[0,0.5],[1,0.5]];portConstraint=eastwest;" parent="15" vertex="1">
                    <mxGeometry y="312" width="140" height="26" as="geometry"/>
                </mxCell>
                <mxCell id="42" value="ItemVenda" style="swimlane;fontStyle=0;childLayout=stackLayout;horizontal=1;startSize=26;fillColor=none;horizontalStack=0;resizeParent=1;resizeParentMax=0;resizeLast=0;collapsible=1;marginBottom=0;" parent="1" vertex="1">
                    <mxGeometry x="680" y="60" width="140" height="104" as="geometry"/>
                </mxCell>
                <mxCell id="44" value="num_item: Int" style="text;strokeColor=none;fillColor=none;align=left;verticalAlign=top;spacingLeft=4;spacingRight=4;overflow=hidden;rotatable=0;points=[[0,0.5],[1,0.5]];portConstraint=eastwest;" parent="42" vertex="1">
                    <mxGeometry y="26" width="140" height="26" as="geometry"/>
                </mxCell>
                <mxCell id="45" value="produto: Produto" style="text;strokeColor=none;fillColor=none;align=left;verticalAlign=top;spacingLeft=4;spacingRight=4;overflow=hidden;rotatable=0;points=[[0,0.5],[1,0.5]];portConstraint=eastwest;" parent="42" vertex="1">
                    <mxGeometry y="52" width="140" height="26" as="geometry"/>
                </mxCell>
                <mxCell id="46" value="quantidade: Double" style="text;strokeColor=none;fillColor=none;align=left;verticalAlign=top;spacingLeft=4;spacingRight=4;overflow=hidden;rotatable=0;points=[[0,0.5],[1,0.5]];portConstraint=eastwest;" parent="42" vertex="1">
                    <mxGeometry y="78" width="140" height="26" as="geometry"/>
                </mxCell>
                <mxCell id="49" value="1" style="endArrow=diamondThin;endFill=0;endSize=24;html=1;" parent="1" edge="1">
                    <mxGeometry x="-0.8182" y="10" width="160" relative="1" as="geometry">
                        <mxPoint x="300" y="70" as="sourcePoint"/>
                        <mxPoint x="410" y="70" as="targetPoint"/>
                        <mxPoint as="offset"/>
                    </mxGeometry>
                </mxCell>
                <mxCell id="52" value="0..*" style="edgeLabel;html=1;align=center;verticalAlign=middle;resizable=0;points=[];" parent="49" vertex="1" connectable="0">
                    <mxGeometry x="-0.2373" y="-2" relative="1" as="geometry">
                        <mxPoint x="38" y="-12" as="offset"/>
                    </mxGeometry>
                </mxCell>
                <mxCell id="55" value="" style="endArrow=diamondThin;endFill=1;endSize=24;html=1;entryX=-0.018;entryY=0.083;entryDx=0;entryDy=0;entryPerimeter=0;" parent="1" target="42" edge="1">
                    <mxGeometry width="160" relative="1" as="geometry">
                        <mxPoint x="555" y="70" as="sourcePoint"/>
                        <mxPoint x="660" y="70" as="targetPoint"/>
                    </mxGeometry>
                </mxCell>
                <mxCell id="56" value="1" style="edgeLabel;html=1;align=center;verticalAlign=middle;resizable=0;points=[];" parent="55" vertex="1" connectable="0">
                    <mxGeometry x="-0.888" y="-1" relative="1" as="geometry">
                        <mxPoint y="-11" as="offset"/>
                    </mxGeometry>
                </mxCell>
                <mxCell id="57" value="0..*" style="text;html=1;align=center;verticalAlign=middle;resizable=0;points=[];autosize=1;strokeColor=none;fillColor=none;" parent="1" vertex="1">
                    <mxGeometry x="620" y="50" width="40" height="30" as="geometry"/>
                </mxCell>
                <mxCell id="59" value="" style="endArrow=diamondThin;endFill=0;endSize=24;html=1;exitX=-0.022;exitY=0.071;exitDx=0;exitDy=0;exitPerimeter=0;" parent="1" source="11" edge="1">
                    <mxGeometry width="160" relative="1" as="geometry">
                        <mxPoint x="990" y="80" as="sourcePoint"/>
                        <mxPoint x="820" y="70" as="targetPoint"/>
                    </mxGeometry>
                </mxCell>
                <mxCell id="60" value="1" style="edgeLabel;html=1;align=center;verticalAlign=middle;resizable=0;points=[];" parent="59" vertex="1" connectable="0">
                    <mxGeometry x="-0.3587" y="1" relative="1" as="geometry">
                        <mxPoint x="44" y="-12" as="offset"/>
                    </mxGeometry>
                </mxCell>
                <mxCell id="61" value="0..*" style="edgeLabel;html=1;align=center;verticalAlign=middle;resizable=0;points=[];" parent="59" vertex="1" connectable="0">
                    <mxGeometry x="-0.2095" y="-1" relative="1" as="geometry">
                        <mxPoint x="-64" y="-10" as="offset"/>
                    </mxGeometry>
                </mxCell>
                <mxCell id="62" value="" style="endArrow=block;startArrow=block;endFill=1;startFill=1;html=1;" parent="1" edge="1">
                    <mxGeometry width="160" relative="1" as="geometry">
                        <mxPoint x="1160" y="70" as="sourcePoint"/>
                        <mxPoint x="1320" y="70" as="targetPoint"/>
                    </mxGeometry>
                </mxCell>
                <mxCell id="63" value="0..*" style="edgeLabel;html=1;align=center;verticalAlign=middle;resizable=0;points=[];" parent="62" vertex="1" connectable="0">
                    <mxGeometry x="-0.8504" relative="1" as="geometry">
                        <mxPoint x="8" y="-10" as="offset"/>
                    </mxGeometry>
                </mxCell>
                <mxCell id="64" value="0.. *" style="edgeLabel;html=1;align=center;verticalAlign=middle;resizable=0;points=[];" parent="62" vertex="1" connectable="0">
                    <mxGeometry x="0.0978" relative="1" as="geometry">
                        <mxPoint x="52" y="-10" as="offset"/>
                    </mxGeometry>
                </mxCell>
                <mxCell id="72" value="" style="shape=stencil(lZzZkhzHDUW/Zl4rcl+eZfk/FCHKnDBNKijalv7eSE9kT9dF96mYt1mAqlyQwMUFsl7yT398/uX3Ty8p/PHj+7d/fvrv668/Pr/kv72k9Pr186fvrz/sp5f880v+6bdv3z/94/u3f3/99e33339Zkuunf337z3rCn296ZRwhL60U/nr7SzxG/P8f/v4m/+X16718PXoX+VJBPh/VyReQD0drIl9hPLkfUZ9fM8jnI6cPPD/NI+v6lAny9cHzE8jfhnsn35/Lx3HEqPIwnliPWES+BZBPR6sqT+Ox/dL5DhjPOGY4iacjgTn0I3cRb2Bt9ZjnwecjDDC2owcRR9vZK/EuPmBp0jHPK1OORCt/zCniDVbGzPA89noEsLN4hLMZtCPANoVjnqfaj9E+ID6PCOI2mPPYlxXBwrvBm5VG2Ne4d/0mn7fXeiIfxebrkVA+iY9qR8fFL3LG7RTjfJvMdx4VbUEPlW0IrL+dubMPsb/Q8+2/5/mabWaUF8s3a4tgbflIZ9M3c5uwv3lby01+4lnJap7ZdhD9Qha/kHeUfCLfzvaW7TCimwoyno72Vo8iz5/HAHtzbrAktM92lPP+WpSfMJ6umKFMDKL9aGd7q7bjMJ6hMau2Y8L6jx3Sbs4tICiZ21Xe5M2iwD4NA5zts7Wj4vP7eb/a3Dv+LIim84Q7oyRT6OcR9bxt8LFC1C3uFU3IPKycgd5xD8zF5vMcRuCIVBRpDMYC5mSzKBR2i+Oo5zmMtj3TMzAmgWDM7ZoeK1hIPyvMuH3lY4W+0dpNgTcu3zz5TaHipLMfUkfjM98j0WmOjamfQXRxR6bQAdkUh7mXAicZwylQACl9g867SWfy8HZEZdLmBGFINbpJV1bIChJmwSHVuhHZnWkU8vLNTTphGKxDcYUpUJwyNyrJj5k34e8Wd9y+U6ADZI5XoMUMO3g9VqiK7UyBfPFy1VMVIgXDoRnlYHRhzr07BTpx5txlWcdA0+hpJxo3hY6ZSi87fNx5Plql3rYh3BTqjhiPFfqOmHfOuIAT6HOH/JuCuQV4g4UPYQ4sPqBCdPsQ8QANv6xhR4zHCgYkz0DGZtXoDeUYZ2vt4xj0hrrZl/uwS29o25PeFBpi/+HAmCEBfMM4iuSCZeObxwpzg9k7cELGZwqS+prBk9eYjnSwIxXAGZsXimc3sw4tIbiokN7cAp0486SCWduNu3imIOZtniqDaVg0SGev0fjEmUI/n+mWeA43guIORzda1qLAu16sUtHAXvsOk48VqvolC5OD3lAVhtaCXIQpCAytacOVxwpN2YsaNjB9ppDPtlTGTsCfKYgjW/kYKfRNh9wUMnpvU5CNM1A3IcbNroE9D3SVBtiSKLQNTJ8p1LNpGJIlzLcw5Hmnc9on5JmCeG8D1wTh5lTjW5kmeD5TECdgeD/yG2TjLHcnuvWBwsUqzQ127riewm+Q5D6FnSA8XVZh8y7M221crPsRT01D+DkLKLQPQ52A5b+ZbSme5zD5SFu+cR5RZ0fpgm5jU/UHmg2vKYzOSKCZ09PjjATs8qoqj6GnKEPHRLyFqqFlAWInZtI4wpnPTEqwJJ7vrSh0J0/+NGhmlRBejKkAJm2DeobBpEqUNmR6BvKyFkKo9mAoMuh+UZVrES/6/E7ySRnYgonncIx5QZiwqCaJZ4j8DYV3fT7RNr3r+hckVPuNTHiXJw9nELwILsK40T3wQn/VXeJS0V91hzUrVvUMrxctLxHoMrheVZ74zu5ywYaEraH7KvAdk6IF7iVPQ4LasL2Tp6Bq0F78Q98G+IzlEH/Y8bybvMSvgVTqyhwk80XCvGWlmgbzQK6iM9Aftlt94k4e4kVLGh8HFviaq6hdjCeqP2SG0xNlg5m46cdDVX+TD1HkC3GJw/E/zD129T9MAdem8bFjgrKSNq0nE6Y0ec1Ecb9q0fGz/6lZKzqV9ytpRaci/jF54Rsqr6frAinIglrGOVyzAPgHk0+KJ8l+ynwQf6lrZyjPVbD2sxJgbaWgtKd0JdMZX5WuXTKJ59v1fKXtUB/LN63KRMSHS167lAiPrfGcz29Af7jm20SezpfJS0UmXNVXpJIWeH0cOxx2ZvxMfuj4M41/KN4LGI+WvHSEIP4sj7qsaL4Pnk/n14+fqW2/PunqvMj6J+zf8fub0J97++F8zdtnwgTe2z9TO4/OF3YxPji/hJ+9fwhX6xNVnoq23r8FzHdMvqh/oHxh2UP+mPzQ8V+M52PyQ+NvwFY6k5eOlohc+epHUXnCbzVovEtYT6iuIy0h5VWjtg4mLu267ouEXZsmPx3/QHgva/6SkC+qN5Lxjk+g+RbF85nxatVuxrIX+Bn+DMonUFmtNvWHFfmN6vL9iv6kOvK64fmqU8ffEF+tfEHzWfJXKx+Rehfa28p3nDzlU8njcyyRu2YIw/OUj2f1J4z/LZ/VDi3OT6v6cy6Pm7zwRQ355NV0oPtL+GrxCcrPUDmmuc6mivhz8SGOLyJ+Juzj8S5PeL7fLgHc8WPUn5CUnyyIV3ve/bJ3+QjzV6OIPDVw9gd8JvJdVfvSM9pzb16e8E93eCyjvfXhO9lxfabriL3iY/NH8OTiezWeUvxafLK7FkAtBtXjN8Jjo2v+y7c+Vs+DPp/ylzGVzwzIh6+eJZevUf3CtW8GLmon5W8D2v9MPv8K3FpQ3PNpPEXj+0XJvPrxkz+Z1dUg8XrDdP6Z2zZn16bKxMXsrnxXvqqWZ/X/OB5XD+p4fudQ/mpwxdXxjTEgAW0KUmCLmSuc052wiylPdzGMOUdTGK6QTaSLKUiSkbgTJAZXdlpxiWctfjdVTHzWJNzVCEJyptAl055sGq5UkgPXXqeLZUxGrBYEKS4Wrr4O9UaZ79f4BoE8uR9sKH4tfK1vHWgBIFzBnF0rLOXizkDX3pGV9NIqNcXIlYPUdKR9zXgNaTZXBWQY6NsKKtfpTEFaQSyTSvwGBbKTl7Uq02y5UadVKu7yBufSD7rmCgf/rPtg6QKxE6YgPTyWL+CJS0o3tIvGJVevsIyBEt7VH3kekqUM2HES9c5Nv+jWCtrD0zNjNufIrvpUh/ZHri5oML7hu346lnXWdROZA5v36sNwDcZ009GAsCTuqxWCkGpRptoUBilk1xke0RnbvwX7D760O4Im1/ZOutPcXQQaBdOL7rz3qDik3pTvGnxEVwLpOvSJkepJe56XOdKkoyvRTuY4pubA70fqGamQnAJ1hq+uBrm8EbEsutoU3H0SMr51L0/68viOmPlqKdxPrjQspmyoAoXdOrTh3twz1arW3cWhChfFcrmeOy+qu9nN4aKcHd2yNq5felvqGFCK6xc2yIVvqIr5VoZAb/AfcgictJagRZM5ManJrotujQmO3OpYrjprOnI5uHVt6DYW+pc3FDTX1R7sThC+wd/lDxh3o+v0Nk9GyXdsetFtcNNzLO7iZ8byj+WekpeNyHdRo7vYM/CaQXQFIAsZ1FEXXYdQL0yBOHCSmJJxOHfiVQzXsWHenErWQxlhQ7m0y8NVOAJShv6OON/g7Pp884IXd9wlNWGgVF2HTcP1rI7RzkgeFMdQByy5FNeBPZDSy+5TKHXv+BN5TaEzUkRZg1Tmb3Iktbcc+Ka0MqqLsoL1TOp6U8dsOOr5WjtIB9h9iSbjh318hZgp6qCZcGK0FjQRNj9MJYjgwmXfK/ZEXhDw4udw/ALtzAlTCSu4jpl0MV/9ThXn8Y6amxfT1cQLwbUbfcMPeATf3ke+POpV2YzVZBe8uHknOV4UDcdB8IStqsXfbCCmvKpbiJw2KU8e+UqwL2tQjDOTqtqWcvWxLC37UMzyH+MKjGNcG1rgz1G4NlJuw/EfKwtYNvQfQwvIf/iPrQWMEf5jbszYl6B3NwMecv8xOi5bFXcbmzHDautzbYwXbYbOHqgN09HWAa95LnkdD57doW1Hgb/TMbw9XLRxCUiKV+up9/iQPlvyEuT4KyAudYncpjeUEL9o+3WfkojctuyuIbI3/PDHGy/l7Yf3L0X+9vrly9uHJu//r1+WtD+9fZUy//w/);lineShape=1;" vertex="1" parent="1">
                    <mxGeometry x="335.24694319723835" y="24.71039572563825" width="553.1210804144694" height="227.6012077023563" as="geometry"/>
                </mxCell>
            </root>
        </mxGraphModel>
    </diagram>
</mxfile>